<svg xmlns="http://www.w3.org/2000/svg" width="44.735" height="55.61" viewBox="0 0 44.735 55.61"><g transform="translate(2241 -2540.55)"><path d="M34.9,36.6a3.964,3.964,0,0,0,1.786.447,4.215,4.215,0,0,0,1.34-.223l18.385-6.252a4.018,4.018,0,0,0,2.531-5.136,4.368,4.368,0,0,0-2.084-2.382,4.138,4.138,0,0,0-3.126-.223L35.344,29.083a4.368,4.368,0,0,0-2.382,2.084,4.519,4.519,0,0,0-.223,3.126A4.1,4.1,0,0,0,34.9,36.6Zm.968-6.1L54.25,24.245a3.166,3.166,0,0,1,.819-.149,2.6,2.6,0,0,1,.819,5.062L37.5,35.41h0a2.7,2.7,0,0,1-2.01-.149,2.642,2.642,0,0,1-1.34-1.489A2.72,2.72,0,0,1,35.865,30.5Z" transform="translate(-2264.509 2526.063)"/><path d="M57.063,36.362a4.519,4.519,0,0,0-3.126-.223L35.552,42.391a4.018,4.018,0,0,0-2.531,5.136,4.368,4.368,0,0,0,2.084,2.382,3.388,3.388,0,0,0,1.489.372v3.871H34.435a.7.7,0,0,0-.744.744v5.657a8.479,8.479,0,0,0,7,8.337,5.249,5.249,0,0,0,10.421,0,8.479,8.479,0,0,0,7-8.337V54.9a.7.7,0,0,0-.744-.744H54.979V44.4l1.563-.521A4.368,4.368,0,0,0,58.924,41.8a4.519,4.519,0,0,0,.223-3.126A3.965,3.965,0,0,0,57.063,36.362ZM38.082,50.132h.149l5.062-1.712v5.806h-5.21Zm6.7,4.094V47.9l2.084-.67v7ZM45.9,72.016a3.683,3.683,0,0,1-3.647-2.977h7.295A3.625,3.625,0,0,1,45.9,72.016ZM56.617,60.553a6.989,6.989,0,0,1-7,7H42.176a6.989,6.989,0,0,1-7-7V55.64H56.617ZM53.49,54.226H48.28V46.708l5.21-1.786ZM56.1,42.466,37.71,48.718h0a2.589,2.589,0,0,1-1.638-4.913l18.385-6.252a3.053,3.053,0,0,1,.819-.074,1.938,1.938,0,0,1,1.117.3,2.642,2.642,0,0,1,1.34,1.489A2.562,2.562,0,0,1,56.1,42.466Z" transform="translate(-2264.568 2522.655)"/><path d="M39.817,23.682a4.215,4.215,0,0,0,1.34-.223h0l11.314-3.871a4.049,4.049,0,1,0-2.605-7.667L38.552,15.791a4.018,4.018,0,0,0-2.531,5.136A3.907,3.907,0,0,0,39.817,23.682ZM39,17.206l11.314-3.871a3.166,3.166,0,0,1,.819-.149,1.938,1.938,0,0,1,1.117.3,2.642,2.642,0,0,1,1.34,1.489,2.612,2.612,0,0,1-1.638,3.275L40.636,22.118h0a2.7,2.7,0,0,1-2.01-.149,2.642,2.642,0,0,1-1.34-1.489A2.72,2.72,0,0,1,39,17.206Z" transform="translate(-2265.334 2528.859)"/><path d="M70.5,25.044a.7.7,0,0,0,.744.744H77.2a.744.744,0,0,0,0-1.489H71.244A.8.8,0,0,0,70.5,25.044Z" transform="translate(-2274.208 2525.636)"/><path d="M70.444,20.306a.676.676,0,0,0,.521-.223l4.317-4.317a.737.737,0,1,0-1.042-1.042l-4.317,4.317a.72.72,0,0,0,0,1.042A.676.676,0,0,0,70.444,20.306Z" transform="translate(-2274.004 2528.141)"/><path d="M21.144,38.289H27.1a.744.744,0,1,0,0-1.489H21.144a.744.744,0,1,0,0,1.489Z" transform="translate(-2261.4 2522.44)"/><path d="M27.941,41.023l-4.317,4.317a.72.72,0,0,0,0,1.042.72.72,0,0,0,1.042,0l4.317-4.317a.737.737,0,0,0-1.042-1.042Z" transform="translate(-2262.167 2521.417)"/></g></svg>