<?xml version="1.0" encoding="iso-8859-1"?>
<!-- Generator: Adobe Illustrator 19.0.0, SVG Export Plug-In . SVG Version: 6.00 Build 0)  -->
<svg version="1.1" id="Capa_1" xmlns="http://www.w3.org/2000/svg" xmlns:xlink="http://www.w3.org/1999/xlink" x="0px" y="0px"
	 viewBox="0 0 496 496" style="enable-background:new 0 0 496 496;" xml:space="preserve">
<g>
	<g>
		<g>
			<path d="M376,381.328v-45.016c0-17.816-6.936-34.56-19.528-47.152c-10.848-10.856-25.24-17.672-40.512-19.2l-51.96-5.2V256
				h-0.832C292.448,237.584,312,205.072,312,168v-16h16c8.824,0,16-7.176,16-16v-16c0-8.824-7.176-16-16-16h-8v-8
				c0-52.936-43.064-96-96-96h-32c-52.936,0-96,43.064-96,96v8h-8c-8.824,0-16,7.176-16,16v16c0,8.824,7.176,16,16,16h16v16
				c0,37.072,19.552,69.584,48.832,88H152v8.76l-51.952,5.192c-15.272,1.528-29.664,8.344-40.512,19.2
				C46.936,301.744,40,318.496,40,336.312V424c0,13.232,10.768,24,24,24h32v48h216h8h56v-30.384l24-16l24,16l32-21.336v-59.992
				L376,381.328z M320,286.936c9.464,2.056,18.264,6.64,25.16,13.536c9.568,9.568,14.84,22.296,14.84,35.84V352h-40V286.936z
				 M320,368h40v12.736l-40-1.488V368z M264,280.84l40,4v93.824l-40-1.48V280.84z M112,96c0-41.416,31.632-75.568,72-79.592V88h16
				V16h16v72h16V16.408c40.368,4.024,72,38.184,72,79.592v8H112V96z M120,168v-16h144v-16H88v-16h240v16h-48v16h16v16
				c0,48.52-39.48,88-88,88C159.48,256,120,216.52,120,168z M176,385.136V384c0-4.408,3.584-8,8-8h32c4.416,0,8,3.592,8,8v64
				c0,4.408-3.584,8-8,8h-32c-4.416,0-8-3.592-8-8v-1.136c13.768-3.576,24-16,24-30.864S189.768,388.712,176,385.136z M216,360h-32
				c-6.168,0-11.744,2.408-16,6.24V298.2c8.944,7.728,21.944,13.8,40,13.8c18.056,0,31.056-6.072,40-13.8v78.384l-9.4-0.344
				C235.352,366.824,226.504,360,216,360z M208,296c-30.208,0-38.6-20.904-40-25.168v-6.856c12.32,5.152,25.832,8.024,40,8.024
				c14.168,0,27.68-2.872,40-8.024v6.856C246.624,275,238.216,296,208,296z M112,284.84l40-4V384h-40V284.84z M56,336.312
				c0-13.544,5.272-26.272,14.84-35.84c6.896-6.896,15.68-11.656,25.16-13.704V352H56V336.312z M64,432c-4.416,0-8-3.592-8-8v-56h40
				v32h72c8.824,0,16,7.176,16,16c0,8.824-7.176,16-16,16H64z M304,480H112v-32h48c0,13.232,10.768,24,24,24h32
				c7.064,0,13.36-3.128,17.76-8h0.664L256,449.616l24,16l24-16V480z M360,480h-40v-19.72l8,5.336l24-16l8,5.336V480z M440,435.72
				l-16,10.664l-24-16l-24,16l-24-16l-24,16l-24-16l-24,16l-24-16l-16,10.664v-48.752l200,7.408V435.72z"/>
			<rect x="152" y="72" width="16" height="16"/>
			<rect x="120" y="72" width="16" height="16"/>
			<rect x="280" y="72" width="16" height="16"/>
			<rect x="248" y="72" width="16" height="16"/>
		</g>
	</g>
</g>
<g>
</g>
<g>
</g>
<g>
</g>
<g>
</g>
<g>
</g>
<g>
</g>
<g>
</g>
<g>
</g>
<g>
</g>
<g>
</g>
<g>
</g>
<g>
</g>
<g>
</g>
<g>
</g>
<g>
</g>
</svg>
