<svg xmlns="http://www.w3.org/2000/svg" width="57.002" height="58.004" viewBox="0 0 57.002 58.004"><g transform="translate(2094.002 -2539)"><path d="M7.464,4.3l-4.67,7.265a5,5,0,0,0,1.687,7.021l8.392,4.9c.013.007.026.01.039.016s.011.011.018.014l2,1a1,1,0,0,0,.895,0l3.1-1.553,1.553,3.1a1,1,0,0,0,1.137.522l3.222-.805,1.641,3.282a.992.992,0,0,0,1.137.522l3.316-.829,1.609,2.414a.993.993,0,0,0,1.028.426l4.393-.879L39.737,33H8a1,1,0,0,0-1,1v9a1,1,0,0,0,1,1H20.1L16.408,58.758A1,1,0,0,0,17.377,60h6a1,1,0,0,0,.97-.758L28.158,44H38.6l3.811,15.242a1,1,0,0,0,.97.758h6a1,1,0,0,0,.97-1.242L46.658,44H58a1,1,0,0,0,1-1V34a1,1,0,0,0-1-1H54.128l1.181-3.021a1,1,0,0,0-.382-1.2l-32-21a.277.277,0,0,0-.026-.01c-.007-.005-.011-.013-.019-.017l-8.691-5.07h0A4.99,4.99,0,0,0,7.464,4.3ZM22.6,58H18.659l3.5-14H26.1Zm25.5,0H44.159l-3.5-14H44.6ZM57,42H9V35H57Zm-5.02-9H42.267l-3.1-4a1,1,0,0,0-.986-.368l-4.343.868L32.21,27.061a1,1,0,0,0-1.075-.415l-3.222.805-1.641-3.282a.994.994,0,0,0-1.137-.522l-3.222.805L20.272,21.17a1,1,0,0,0-1.342-.447L15.377,22.5l-.556-.278,7.852-12.214,30.478,20ZM20.971,8.953,13.054,21.269,5.489,16.857a3,3,0,0,1-1.012-4.214l4.67-7.264a2.992,2.992,0,0,1,4.035-.97h0Z" transform="translate(-2096 2537.004)"/><path d="M9.487,8.647,7.708,11.315a3,3,0,0,0,.952,4.236l3.2,1.921a1,1,0,0,0,1.347-.3l4-6a1,1,0,0,0-.317-1.412L13.527,7.739A3,3,0,0,0,9.487,8.647Zm3.011.807,2.465,1.479-2.889,4.334L9.69,13.837a1,1,0,0,1-.317-1.412l1.779-2.668a1,1,0,0,1,1.346-.3Z" transform="translate(-2096 2537.004)"/></g></svg>