<svg xmlns="http://www.w3.org/2000/svg" width="42" height="63" viewBox="0 0 42 63"><path d="M19.7,39.549l-.7-1.98a10.52,10.52,0,0,0-7,9.9h2.1a8.415,8.415,0,0,1,5.6-7.922Z" transform="translate(-12 -0.222)"/><path d="M45.366,37.569l-.7,1.98a8.417,8.417,0,0,1,5.6,7.922h2.1A10.519,10.519,0,0,0,45.366,37.569Z" transform="translate(-10.367 -0.222)"/><path d="M48.5,61.85a3.15,3.15,0,0,0-2.1-2.957V54.5a10.51,10.51,0,0,0-6.3-9.617V39.8a1.05,1.05,0,0,0-1.05-1.05h-2.1V6.2a4.2,4.2,0,0,0-8.4,0V38.75h-2.1A1.05,1.05,0,0,0,25.4,39.8v5.083A10.51,10.51,0,0,0,19.1,54.5v4.393A3.143,3.143,0,0,0,20.15,65h25.2a3.15,3.15,0,0,0,3.15-3.15ZM30.65,6.2a2.1,2.1,0,0,1,4.2,0V38.75h-4.2ZM27.5,40.85H38V44H27.5ZM21.2,54.5a8.409,8.409,0,0,1,8.4-8.4h6.3a8.409,8.409,0,0,1,8.4,8.4H27.5v2.1H44.3v2.1H21.2Zm-2.1,7.35a1.05,1.05,0,0,1,1.05-1.05h25.2a1.05,1.05,0,0,1,0,2.1H20.15A1.05,1.05,0,0,1,19.1,61.85Z" transform="translate(-11.75 -2)"/><rect width="2.1" height="2.1" transform="translate(11.55 52.5)"/><rect width="2.1" height="2.1" transform="translate(0 49.35)"/><rect width="2.1" height="2.1" transform="translate(39.9 49.35)"/><rect width="2.1" height="2.1" transform="translate(19.95 4.2)"/></svg>